<?xml version="1.0" standalone="no"?>
<!DOCTYPE svg PUBLIC "-//W3C//DTD SVG 20010904//EN"
 "http://www.w3.org/TR/2001/REC-SVG-20010904/DTD/svg10.dtd">
<svg version="1.0" xmlns="http://www.w3.org/2000/svg"
 width="814.000000pt" height="814.000000pt" viewBox="0 0 814.000000 814.000000"
 preserveAspectRatio="xMidYMid meet">
<metadata>
Created by potrace 1.11, written by Peter Selinger 2001-2013
</metadata>
<g transform="translate(0.000000,814.000000) scale(0.100000,-0.100000)"
fill="#000000" stroke="none">
<path d="M970 7590 l0 -30 3100 0 3100 0 0 30 0 30 -3100 0 -3100 0 0 -30z"/>
<path d="M5010 6905 l0 -605 -2020 0 -2020 0 0 -30 0 -30 3100 0 3100 0 0 30
0 30 -1030 0 -1030 0 0 605 0 605 -50 0 -50 0 0 -605z"/>
<path d="M1735 7415 l-25 -24 0 -435 c0 -301 3 -443 11 -460 13 -27 46 -40 83
-30 13 3 29 17 35 30 8 17 11 159 11 460 l0 435 -25 24 c-13 14 -33 25 -45 25
-11 0 -32 -11 -45 -25z"/>
<path d="M2684 7297 c-3 -8 -4 -52 -2 -98 l3 -84 945 0 945 0 0 95 0 95 -943
3 c-780 2 -943 0 -948 -11z"/>
<path d="M5502 7003 c17 -111 86 -198 198 -252 l55 -26 435 0 435 0 55 26
c112 54 181 141 198 252 l9 57 -697 0 -697 0 9 -57z"/>
<path d="M2670 6650 l0 -150 150 0 150 0 0 150 0 150 -150 0 -150 0 0 -150z"/>
<path d="M3150 6650 l0 -150 150 0 150 0 0 150 0 150 -150 0 -150 0 0 -150z"/>
<path d="M3630 6650 l0 -150 150 0 150 0 0 150 0 150 -150 0 -150 0 0 -150z"/>
<path d="M4110 6650 l0 -150 150 0 150 0 0 150 0 150 -150 0 -150 0 0 -150z"/>
<path d="M4000 5113 c-781 -43 -1401 -652 -1459 -1430 -36 -483 159 -957 526
-1278 285 -249 627 -376 1013 -376 383 0 725 126 1007 370 311 270 502 648
532 1058 56 748 -437 1430 -1164 1612 -133 33 -324 52 -455 44z m266 -398 c45
-8 113 -26 153 -40 83 -28 253 -115 296 -152 l30 -25 -30 7 c-161 38 -333 45
-478 20 -522 -92 -921 -540 -944 -1060 -12 -261 51 -488 193 -702 70 -106 197
-235 289 -297 38 -25 63 -46 54 -46 -9 0 -62 14 -119 30 -317 95 -568 305
-719 605 -72 143 -121 352 -121 515 0 157 46 359 116 506 78 165 233 346 387
452 147 101 344 179 512 201 92 13 279 6 381 -14z"/>
<path d="M970 800 l0 -40 3100 0 3100 0 0 40 0 40 -3100 0 -3100 0 0 -40z"/>
</g>
</svg>
