<svg xmlns="http://www.w3.org/2000/svg" width="42" height="42" viewBox="0 0 42 42">
  <path id="error-circle-o" d="M21,42A21,21,0,1,1,42,21,21.026,21.026,0,0,1,21,42ZM21,5.1A15.9,15.9,0,1,0,36.9,21,15.918,15.918,0,0,0,21,5.1h0Zm8.97,20.931a.719.719,0,0,0-.231-.534l-4.5-4.5,4.527-4.527A.73.73,0,0,0,30,15.936a.749.749,0,0,0-.237-.537L26.6,12.234A.749.749,0,0,0,26.061,12a.73.73,0,0,0-.534.231L21,16.755l-4.527-4.527A.73.73,0,0,0,15.939,12a.749.749,0,0,0-.537.237L12.237,15.4a.749.749,0,0,0-.237.537.73.73,0,0,0,.231.534L16.758,21l-4.527,4.5a.73.73,0,0,0-.231.534.749.749,0,0,0,.237.537L15.4,29.733a.73.73,0,0,0,1.071.006L21,25.239l4.5,4.5a.73.73,0,0,0,.534.231.749.749,0,0,0,.537-.237l3.165-3.165a.745.745,0,0,0,.24-.534h0Z" fill="#ca0000"/>
</svg>
