<svg xmlns="http://www.w3.org/2000/svg" width="41.072" height="41.069" viewBox="0 0 41.072 41.069">
  <g id="info" transform="translate(0.001 0.017)">
    <path id="Path_25" data-name="Path 25" d="M20.535,41.052a20.021,20.021,0,0,1-7.981-1.6,20.484,20.484,0,0,1-6.518-4.412A21.176,21.176,0,0,1,1.624,28.5,19.775,19.775,0,0,1,0,20.519a19.786,19.786,0,0,1,1.625-7.981A20.8,20.8,0,0,1,12.553,1.608,19.786,19.786,0,0,1,20.535-.017a19.786,19.786,0,0,1,7.981,1.625A20.8,20.8,0,0,1,39.446,12.537a19.786,19.786,0,0,1,1.625,7.981A19.786,19.786,0,0,1,39.446,28.5a21.158,21.158,0,0,1-4.412,6.535,20.532,20.532,0,0,1-6.518,4.412A19.97,19.97,0,0,1,20.535,41.052ZM14.5,6.184A15.746,15.746,0,0,0,9.55,9.534,15.913,15.913,0,0,0,6.2,14.485a15.544,15.544,0,0,0,0,12.088,15.451,15.451,0,0,0,3.35,4.951A16.058,16.058,0,0,0,14.5,34.854a15.493,15.493,0,0,0,12.068,0,15.972,15.972,0,0,0,4.951-3.329,15.579,15.579,0,0,0,3.35-4.951,15.544,15.544,0,0,0,0-12.088,15.778,15.778,0,0,0-8.3-8.3,15.493,15.493,0,0,0-12.068,0Zm8.961,7.794V11.062a1.085,1.085,0,0,0-.041-.3.38.38,0,0,0-.161-.22,1,1,0,0,0-.241-.182.6.6,0,0,0-.282-.062H18.326a.613.613,0,0,0-.282.062.882.882,0,0,0-.241.182.384.384,0,0,0-.161.22,1.1,1.1,0,0,0-.041.3v2.916a.971.971,0,0,0,.041.3.393.393,0,0,0,.161.22.642.642,0,0,0,.241.161.891.891,0,0,0,.282.041h4.412a.837.837,0,0,0,.282-.041.62.62,0,0,0,.241-.161.384.384,0,0,0,.161-.22,1.1,1.1,0,0,0,.041-.3Zm0,14.666V18.4a1.085,1.085,0,0,0-.041-.3.6.6,0,0,0-.161-.261,2.558,2.558,0,0,0-.241-.141.6.6,0,0,0-.282-.062H18.326a.613.613,0,0,0-.282.062,2.232,2.232,0,0,0-.241.141.606.606,0,0,0-.161.261,1.1,1.1,0,0,0-.041.3V28.644a.971.971,0,0,0,.041.3.393.393,0,0,0,.161.22.642.642,0,0,0,.241.161.891.891,0,0,0,.282.041h4.412a.837.837,0,0,0,.282-.041.62.62,0,0,0,.241-.161.384.384,0,0,0,.161-.22A1.1,1.1,0,0,0,23.462,28.644Z" transform="translate(0 0)" fill="#4e5359"/>
  </g>
</svg>
