<svg id="ok" xmlns="http://www.w3.org/2000/svg" width="41" height="41" viewBox="0 0 41 41">
  <path id="Path_28" data-name="Path 28" d="M23.615,8.218a1.426,1.426,0,0,1-.409,1.041l-8.158,8.257-2.311,2.357a1.457,1.457,0,0,1-2.041,0l-6.787-6.92a1.53,1.53,0,0,1,0-2.082L5.9,8.842a1.369,1.369,0,0,1,1.021-.417,1.369,1.369,0,0,1,1.021.417l3.714,3.785,7.46-7.544a1.457,1.457,0,0,1,2.041,0l2.053,2.1a1.426,1.426,0,0,1,.409,1.041h0Z" transform="translate(6.851 8.917)" fill="#439d39"/>
  <path id="Path_29" data-name="Path 29" d="M20.5,41A20.5,20.5,0,1,1,41,20.5,20.525,20.525,0,0,1,20.5,41Zm0-36.021A15.521,15.521,0,1,0,36.024,20.5,15.539,15.539,0,0,0,20.5,4.979Z" transform="translate(0)" fill="#439d39"/>
</svg>
