<svg xmlns="http://www.w3.org/2000/svg" xmlns:xlink="http://www.w3.org/1999/xlink" width="300" height="300" viewBox="0 0 300 300">
  <defs>
    <clipPath id="clip-timer">
      <rect width="300" height="300"/>
    </clipPath>
  </defs>
  <g id="timer" clip-path="url(#clip-timer)">
    <rect width="300" height="300" fill="#fff"/>
    <g id="middle" transform="translate(-632 -303)">
      <g id="timer-stopwatch" transform="translate(654 316)">
        <path id="clock_inner" d="M200.478,150.714c-55.274,0-100.5,45.224-100.5,100.5A100.151,100.151,0,0,0,128.6,321.264a4.924,4.924,0,0,0,.617.752,5.643,5.643,0,0,0,.789.663,100.165,100.165,0,0,0,70.474,29.03c55.274,0,100.5-45.224,100.5-100.5S255.752,150.714,200.478,150.714ZM278.136,255.78h13.589a91.022,91.022,0,0,1-23.6,56.679l-9.628-9.628a4.522,4.522,0,1,0-6.4,6.4l9.628,9.628a91.019,91.019,0,0,1-56.679,23.6v-13.59a4.568,4.568,0,0,0-9.136,0v13.589a91.03,91.03,0,0,1-56.918-23.822l9.41-9.41a4.522,4.522,0,0,0-6.4-6.4l-9.386,9.386a91.01,91.01,0,0,1-23.389-56.437h13.589a4.577,4.577,0,0,0,4.568-4.568,4.316,4.316,0,0,0-4.568-4.568H109.232a91.021,91.021,0,0,1,23.6-56.679l9.628,9.628a4.146,4.146,0,0,0,3.2,1.37,4.932,4.932,0,0,0,3.2-1.37,4.416,4.416,0,0,0,0-6.4l-9.628-9.628a91.02,91.02,0,0,1,56.679-23.6v13.589a4.316,4.316,0,0,0,4.568,4.568,4.577,4.577,0,0,0,4.568-4.568V159.965a91.021,91.021,0,0,1,56.679,23.6L252.1,193.2a4.416,4.416,0,0,0,0,6.4,4.415,4.415,0,0,0,6.395,0l9.628-9.628a91.02,91.02,0,0,1,23.6,56.679H278.135a4.568,4.568,0,1,0,0,9.136Z" transform="translate(-72.254 -95.946)" fill="#202024"/>
        <path id="clock_outer" d="M265.178,81.2a14.171,14.171,0,0,0,10.05-4.111,14.339,14.339,0,0,0,0-20.1L256.955,38.713a14.2,14.2,0,0,0-22.609,16.67l-7.366,7.366a118.425,118.425,0,0,0-57.733-26.274V25.922h8.679a9.271,9.271,0,0,0,9.593-9.136V8.107a9.367,9.367,0,0,0-9.593-9.593H123.567a9.271,9.271,0,0,0-9.136,9.593v8.223a9.271,9.271,0,0,0,9.136,9.593H132.7V36.474A118.41,118.41,0,0,0,75.219,62.539l-7.463-7.463A14.2,14.2,0,0,0,45,38.713L26.724,56.985a14.339,14.339,0,0,0,0,20.1,14.351,14.351,0,0,0,19.141.869l7.882,7.882a117.928,117.928,0,0,0-21.541,67.993c0,65.324,53.447,118.771,118.77,118.771s118.77-53.447,118.77-118.77A117.921,117.921,0,0,0,248.392,86.1l7.947-7.947A14.24,14.24,0,0,0,265.178,81.2ZM243.251,45.108a5.558,5.558,0,0,1,7.309,0L268.832,63.38c1.827,2.284,2.284,5.482,0,7.309s-5.482,1.827-7.309,0l-.826-.826a4.752,4.752,0,0,0-1-1.458L243.707,52.416a4.852,4.852,0,0,0-.966-.746A5.423,5.423,0,0,1,243.251,45.108Zm-3.2,16.9,9.593,9.593-6.852,6.852a95.337,95.337,0,0,0-9.136-10.05ZM123.567,7.65l54.817.457v8.223c0,.457,0,.457-.457.457l-54.36-.457Zm18.272,18.272h18.272v9.487q-4.524-.348-9.136-.351t-9.136.351V25.922ZM61.9,62.01l6.4,6.4a95.447,95.447,0,0,0-9.136,10.05L52.305,71.6ZM33.119,70.69c-1.827-2.284-1.827-5.482,0-7.309L51.391,45.108a5.558,5.558,0,0,1,7.309,0c1.827,2.284,1.827,5.482,0,7.309L42.712,68.405,40.428,70.69A5.558,5.558,0,0,1,33.119,70.69ZM150.976,263.462c-60.3,0-109.634-49.335-109.634-109.634A108.931,108.931,0,0,1,63.115,88.45q.305-.2.61-.4c4.111-5.938,9.136-10.963,14.618-15.988a4.254,4.254,0,0,0,.5-.611A109.32,109.32,0,0,1,137.1,45.074c.207.02.416.033.625.033a128.375,128.375,0,0,1,26.495,0h.457c.092,0,.191-.008.29-.017,53.754,6.927,95.64,53.178,95.64,108.738C260.61,214.127,211.274,263.462,150.976,263.462Z" transform="translate(-22.613 1.486)" fill="#202024"/>
        <g id="middle-2" data-name="middle" transform="translate(110 138)" fill="#fff" stroke="#202024" stroke-width="9">
          <circle cx="18" cy="18" r="18" stroke="none"/>
          <circle cx="18" cy="18" r="13.5" fill="none"/>
        </g>
      </g>
    </g>
  </g>
</svg>
