<svg xmlns="http://www.w3.org/2000/svg" width="42" height="40.568" viewBox="0 0 42 40.568">
  <path id="warning-triangle" d="M21,.021a3.237,3.237,0,0,1,.8.1,2.551,2.551,0,0,1,.718.306,2.611,2.611,0,0,1,.637.493,3.4,3.4,0,0,1,.472.655L41.61,36.162A2.861,2.861,0,0,1,42,37.637a3.214,3.214,0,0,1-.429,1.475,2.971,2.971,0,0,1-.472.637,2.719,2.719,0,0,1-.637.472,3.8,3.8,0,0,1-.7.267,2.862,2.862,0,0,1-.778.1H3.015a2.862,2.862,0,0,1-.778-.1,3.8,3.8,0,0,1-.7-.267A2.687,2.687,0,0,1,.432,39.112,3.214,3.214,0,0,1,0,37.637a2.8,2.8,0,0,1,.39-1.475L18.378,1.577A3.2,3.2,0,0,1,18.85.922a2.611,2.611,0,0,1,.637-.493A2.642,2.642,0,0,1,20.2.123a3.1,3.1,0,0,1,.8-.1ZM5.457,35.994H36.637L21,5.541,5.457,35.994Zm18.5-3.418a.606.606,0,0,1-.574.39H19.021c-.454,0-1.009-.024-1.009-.616V30.522a.6.6,0,0,1,.616-.616h4.755a.6.6,0,0,1,.616.616v1.829a.613.613,0,0,1-.042.225Zm.018-5.971A.606.606,0,0,1,23.4,27H19.039c-.454,0-1.009-.024-1.009-.616V17.135a.6.6,0,0,1,.616-.616H23.4a.6.6,0,0,1,.616.616V26.38a.613.613,0,0,1-.042.225Z" transform="translate(-0.002 -0.021)" fill="#ea740b"/>
</svg>
